<svg width="1440" height="1024" viewBox="0 0 1440 1024" fill="none" xmlns="http://www.w3.org/2000/svg">
<g clip-path="url(#clip0_1027_3545)">
<path d="M1249.28 -616.993L1249.35 -668.885L1164.16 -669L1163.56 -229.028L1205.85 -228.97L1205.7 -118.011L1188.57 -140.116L1188.45 -52.3421L1217.87 -52.3023L1236.85 -35.1635L1236.65 112.782L1269.74 112.827L1247.04 133.221L1304.58 185.191L1304.62 157.037L1315.03 166.436L1315.08 125.033L1315.25 -0.279162L1285.87 -26.8167L1286.06 -166.482L1270.1 -148.286L1270.7 -597.643L1249.28 -616.993Z" fill="#22133E" stroke="#22133E"/>
<path d="M38.1082 -638.894L38.2964 -690.785L113.787 -690.511L112.191 -250.541L74.717 -250.677L74.3144 -139.719L89.6013 -161.745L89.2828 -73.9717L63.214 -74.0663L46.3158 -57.0143L45.779 90.9304L16.4517 90.824L36.4722 111.322L-14.7674 163.028L-14.6652 134.874L-23.9319 144.225L-23.7817 102.823L-23.327 -22.4885L2.83787 -48.8915L3.34464 -188.556L17.3991 -170.287L19.0296 -619.642L38.1082 -638.894Z" fill="#22133E" stroke="#22133E"/>
<path d="M1199.94 373.311L1199.99 342.069L1148.7 342L1148.34 606.886L1173.8 606.92L1173.71 673.724L1163.39 660.415L1163.32 713.26L1181.03 713.284L1192.46 723.602L1192.34 812.673L1212.26 812.7L1198.6 824.978L1233.24 856.267L1233.26 839.317L1239.53 844.975L1239.56 820.049L1239.66 744.604L1221.97 728.627L1222.09 644.542L1212.48 655.496L1212.84 384.96L1199.94 373.311Z" fill="#22133E" stroke="#22133E"/>
<path d="M118.174 350.623L126.127 364.841L128.479 68.2262L106.45 26.2028L81.4935 -16.4592L80.6345 91.8481L36.4315 164.733L11.5002 211.307L12.9128 218.088L17.7319 211.356L15.35 511.663L70.2861 425.94L68.6218 635.785L48.1772 671.318L47.323 779.01L114.772 779.545L118.174 350.623Z" fill="#22133E"/>
<path d="M305.877 -176.03L297.883 -190.224L296.417 106.396L318.571 148.354L343.655 190.941L344.191 82.6314L388.176 9.61502L412.968 -37.0336L411.535 -43.8102L406.736 -37.0644L408.22 -337.377L353.54 -251.49L354.577 -461.339L374.915 -496.933L375.448 -604.627L307.997 -604.96L305.877 -176.03Z" fill="#22133E"/>
<path d="M507.108 677.106L507.296 625.215L582.787 625.489L581.191 1065.46L543.717 1065.32L543.314 1176.28L558.601 1154.26L558.283 1242.03L532.214 1241.93L515.316 1258.99L514.779 1406.93L485.452 1406.82L505.472 1427.32L454.233 1479.03L454.335 1450.87L445.068 1460.23L445.218 1418.82L445.673 1293.51L471.838 1267.11L472.345 1127.44L486.399 1145.71L488.03 696.358L507.108 677.106Z" fill="#22133E" stroke="#22133E"/>
<path d="M710.278 -146.993L710.349 -198.885L625.155 -199L624.56 240.973L666.85 241.03L666.7 351.989L649.569 329.884L649.45 417.658L678.869 417.698L697.846 434.837L697.646 582.782L730.743 582.827L708.038 603.222L765.581 655.191L765.619 627.037L776.025 636.436L776.081 595.033L776.251 469.721L746.867 443.183L747.056 303.518L731.096 321.714L731.704 -127.643L710.278 -146.993Z" fill="#22133E" stroke="#22133E"/>
<path d="M632.582 428.143L632.54 459.384L620.359 471L619.993 741.536L610.97 730.556L610.857 814.642L594.151 830.572L594.049 906.016L594.015 930.943L599.932 925.301L599.909 942.251L632.624 911.054L619.78 898.739L638.55 898.765L638.67 809.694L649.459 799.406L666.143 799.428L666.215 746.584L656.465 759.865L656.555 693.062L680.538 693.094L679 442.592L662.5 428.092L632.582 428.143Z" fill="#22133E"/>
<path d="M680.538 693.094L656.555 693.062L656.465 759.865L666.215 746.584L666.143 799.428L649.459 799.406L638.67 809.694L638.55 898.765L619.78 898.739L632.624 911.054L599.909 942.251L599.932 925.301L594.015 930.943L594.049 906.016L594.151 830.572L610.857 814.642L610.97 730.556L619.993 741.536L620.359 471L632.54 459.384L632.582 428.143L662.5 428.092M680.538 693.094L662.5 428.092M680.538 693.094L679 442.592L662.5 428.092" stroke="#22133E"/>
<path d="M346.758 543.118L346.78 527.036L320.358 527L320.174 663.359L333.29 663.377L333.243 697.766L327.93 690.916L327.893 718.119L337.017 718.131L342.903 723.443L342.841 769.296L353.105 769.309L346.064 775.63L363.91 791.737L363.922 783.011L367.149 785.924L367.166 773.093L367.219 734.255L358.106 726.03L358.165 682.744L353.215 688.383L353.403 549.115L346.758 543.118Z" fill="#22133E" stroke="#22133E"/>
<path d="M580.174 143.623L588.127 157.841L590.479 -138.774L568.45 -180.797L543.494 -223.459L542.635 -115.152L498.432 -42.2673L473.5 4.30704L474.913 11.0879L479.732 4.35647L477.35 304.663L532.286 218.94L530.622 428.786L510.177 464.318L509.323 572.01L576.772 572.545L580.174 143.623Z" fill="#22133E"/>
<path d="M1308.3 264.033L1308.2 212.142L1383.69 212L1384.52 651.972L1347.04 652.043L1347.25 763.002L1362.42 740.892L1362.58 828.665L1336.51 828.714L1319.71 845.859L1319.99 993.804L1290.66 993.86L1310.79 1014.25L1259.84 1066.23L1259.78 1038.08L1250.57 1047.48L1250.49 1006.08L1250.26 880.768L1276.28 854.221L1276.01 714.556L1290.17 732.747L1289.32 283.39L1308.3 264.033Z" fill="#22133E" stroke="#22133E"/>
<path d="M1046.88 728.198L1046.81 780.09L1132 780.205L1132.6 340.232L1090.3 340.175L1090.45 229.216L1107.59 251.321L1107.7 163.547L1078.29 163.507L1059.31 146.368L1059.51 -1.5772L1026.41 -1.62197L1049.12 -22.0166L991.575 -73.9859L991.536 -45.8321L981.13 -55.2308L981.074 -13.8281L980.904 111.484L1010.29 138.022L1010.1 277.687L1026.06 259.491L1025.45 708.848L1046.88 728.198Z" fill="#22133E" stroke="#22133E"/>
<path d="M319.857 501.158L319.83 521.221L352.768 521.265L352.999 351.157L336.648 351.135L336.706 308.234L343.329 316.78L343.375 282.844L332.001 282.829L324.664 276.202L324.741 219.001L311.945 218.984L320.723 211.099L298.475 191.005L298.46 201.891L294.437 198.257L294.415 214.265L294.35 262.715L305.71 272.975L305.637 326.974L311.808 319.939L311.573 493.676L319.857 501.158Z" fill="#22133E" stroke="#22133E"/>
<path d="M1169.64 46.222L1175 55.6852L1175 -142.632L1160.14 -170.61L1143.32 -199L1143.32 -126.585L1114.33 -77.6234L1098 -46.3534L1098.97 -41.8275L1102.14 -46.3534L1102.14 156.5L1116.5 156.5L1116.5 268.5L1097.5 247L1097.5 333L1169.64 333L1169.64 46.222Z" fill="#22133E"/>
<path d="M936.894 427.308L944.889 441.502L946.355 144.882L924.2 102.924L899.116 60.337L898.581 168.646L854.596 241.663L829.804 288.311L831.237 295.088L836.036 288.342L834.552 588.655L889.231 502.768L888.194 712.617L867.856 748.211L867.324 855.905L934.774 856.238L936.894 427.308Z" fill="#22133E"/>
</g>
<defs>
<clipPath id="clip0_1027_3545">
<rect width="1440" height="1024" fill="white"/>
</clipPath>
</defs>
</svg>
